<?xml version="1.0" encoding="UTF-8"?>
<svg width="136px" height="136px" viewBox="0 0 136 136" version="1.1" xmlns="http://www.w3.org/2000/svg" xmlns:xlink="http://www.w3.org/1999/xlink">
    <!-- Generator: Sketch 50.2 (55047) - http://www.bohemiancoding.com/sketch -->
    <title>large</title>
    <desc>Created with Sketch.</desc>
    <defs>
        <linearGradient x1="86.3671875%" y1="-4.20247396%" x2="33.122306%" y2="50%" id="linearGradient-1">
            <stop stop-color="#20C6DA" offset="0%"></stop>
            <stop stop-color="#546DA9" offset="100%"></stop>
        </linearGradient>
        <circle id="path-2" cx="65" cy="65" r="65"></circle>
    </defs>
    <g id="sign-up" stroke="none" stroke-width="1" fill="none" fill-rule="evenodd">
        <g id="101_sign-up-info" transform="translate(-120.000000, -520.000000)">
            <g id="large" transform="translate(123.000000, 523.000000)">
                <mask id="mask-3" fill="white">
                    <use xlink:href="#path-2"></use>
                </mask>
                <circle stroke="url(#linearGradient-1)" stroke-width="3" cx="65" cy="65" r="66.5"></circle>
                <path d="M23.1862496,117.191938 C26.7075162,120.060925 33.1029881,124.499558 42.8877053,127.628413 C49.6703704,129.845124 66.8889887,134.283757 88.2876762,127.368518 C97.6794601,124.366988 103.809324,120.060899 107.203787,117.191912 C108.900758,115.754809 108.64089,113.14569 106.551508,112.106217 L81.6318143,99.3204918 C80.3272549,98.6682121 79.542432,97.3636528 79.542432,95.9265502 L79.542432,91.8803288 C79.542432,90.9681548 79.8023263,90.056033 80.454606,89.4037533 C84.7606956,84.5779272 87.6296826,77.4028506 88.4145055,75.3132074 C88.5469965,74.9208221 88.8068908,74.5284367 89.0667852,74.2685424 C89.8515559,73.6162627 91.1561675,71.9192918 92.0683154,67.8782887 C92.8530861,63.9646106 91.4160357,61.7479033 90.5038878,60.7032121 C89.9840991,60.1834235 89.719117,59.5311438 89.719117,58.8789163 L89.719117,42.0527094 C88.0221462,32.4010573 82.2841722,27.8356213 76.5404582,25.7457172 C70.4100728,23.3964667 59.4481212,23.3964667 53.1914545,25.8782083 C47.7133487,28.0949156 42.1026997,32.5335484 40.5382721,42.0521354 L40.5382721,58.8783423 C40.5382721,59.530622 40.2783778,60.1829017 39.7535014,60.7026381 C38.8413274,61.7473032 37.4042509,63.9640366 38.1890738,67.8777147 C38.9738445,71.9239361 40.4057811,73.6156887 41.190604,74.2679684 C41.4504983,74.5278627 41.7103926,74.920248 41.8428837,75.3126334 C42.6276544,77.5293407 45.4966936,84.4445491 49.67024,89.2701142 C50.3225197,90.0548849 50.714905,91.09441 50.714905,92.1391012 L50.714905,95.6603679 C50.714905,97.3573387 49.802731,98.7892231 48.2383295,99.574046 L23.5847664,112.099903 C21.7553828,113.017165 21.3629713,115.758801 23.1872802,117.190685 L23.1862496,117.191938 Z" id="Fill-1" fill="#A4A4A4" mask="url(#mask-3)"></path>
            </g>
        </g>
    </g>
</svg>